<?xml version="1.0" encoding="utf-8"?>
<!-- Generator: Adobe Illustrator 21.1.0, SVG Export Plug-In . SVG Version: 6.00 Build 0)  -->
<svg version="1.1" id="Layer_1" xmlns="http://www.w3.org/2000/svg" xmlns:xlink="http://www.w3.org/1999/xlink" x="0px" y="0px"
	 viewBox="0 0 512 512" style="enable-background:new 0 0 512 512;" xml:space="preserve">
<style type="text/css">
	.st0{fill:#25D366;}
</style>
<g>
	<path class="st0" d="M255.7,0L255.7,0L255.7,0C114.8,0,0,114.6,0,255.5c0,55.8,18.1,107.7,48.7,149.8l-31.9,94.9l98.2-31.4
		c40.3,26.6,88.5,42.2,140.5,42.2C396.4,511,511,396.4,511,255.5C511.2,114.6,396.6,0,255.7,0z M404.4,360.6
		c-6.2,17.5-30.7,31.9-50,36c-13.5,2.7-30.7,4.9-89.4-19.2C189.8,346.2,141.6,269.9,137.8,265c-3.6-4.9-30.3-40.3-30.3-77
		s18.6-54.4,26.1-62.2c6.2-6.4,16.4-9.1,26.1-9.1c3.1,0,5.8,0.2,8.6,0.2c7.5,0.2,11.1,0.7,16.2,12.6c6.2,14.8,21.2,51.5,23,55.3
		c1.8,3.8,3.7,8.9,1.1,13.9c-2.6,4.9-4.6,7.3-8.2,11.7c-3.7,4.4-7.3,7.7-11.1,12.2c-3.5,4-7.3,8.4-2.9,15.9
		c4.4,7.3,19.3,31.9,41.4,51.5c28.5,25.6,51.6,33.4,59.9,36.9c6.2,2.6,13.5,2,18.1-2.9c5.7-6.2,12.8-16.4,20.1-26.5
		c4.9-7.3,11.7-8.2,18.3-5.5c6.8,2.6,43.4,20.4,50.9,24.1s12.6,5.5,14.4,8.6C410.6,328.5,410.6,343.5,404.4,360.6z"/>
</g>
</svg>
